G04 EAGLE Gerber RS-274X export*
G75*
%MOMM*%
%FSLAX34Y34*%
%LPD*%
%INCopper Layer 15*%
%IPPOS*%
%AMOC8*
5,1,8,0,0,1.08239X$1,22.5*%
G01*
%ADD10C,1.820000*%
%ADD11C,4.191000*%
%ADD12C,1.960000*%
%ADD13C,1.422400*%
%ADD14C,1.244600*%
%ADD15C,0.609600*%

G36*
X1012308Y2556D02*
X1012308Y2556D01*
X1012427Y2563D01*
X1012465Y2576D01*
X1012506Y2581D01*
X1012616Y2624D01*
X1012729Y2661D01*
X1012764Y2683D01*
X1012801Y2698D01*
X1012897Y2767D01*
X1012998Y2831D01*
X1013026Y2861D01*
X1013059Y2884D01*
X1013135Y2976D01*
X1013216Y3063D01*
X1013236Y3098D01*
X1013261Y3129D01*
X1013312Y3237D01*
X1013370Y3341D01*
X1013380Y3381D01*
X1013397Y3417D01*
X1013419Y3534D01*
X1013449Y3649D01*
X1013453Y3709D01*
X1013457Y3729D01*
X1013455Y3750D01*
X1013459Y3810D01*
X1013459Y758190D01*
X1013444Y758308D01*
X1013437Y758427D01*
X1013424Y758465D01*
X1013419Y758506D01*
X1013376Y758616D01*
X1013339Y758729D01*
X1013317Y758764D01*
X1013302Y758801D01*
X1013233Y758897D01*
X1013169Y758998D01*
X1013139Y759026D01*
X1013116Y759059D01*
X1013024Y759135D01*
X1012937Y759216D01*
X1012902Y759236D01*
X1012871Y759261D01*
X1012763Y759312D01*
X1012659Y759370D01*
X1012619Y759380D01*
X1012583Y759397D01*
X1012466Y759419D01*
X1012351Y759449D01*
X1012291Y759453D01*
X1012271Y759457D01*
X1012250Y759455D01*
X1012190Y759459D01*
X3810Y759459D01*
X3692Y759444D01*
X3573Y759437D01*
X3535Y759424D01*
X3494Y759419D01*
X3384Y759376D01*
X3271Y759339D01*
X3236Y759317D01*
X3199Y759302D01*
X3103Y759233D01*
X3002Y759169D01*
X2974Y759139D01*
X2941Y759116D01*
X2865Y759024D01*
X2784Y758937D01*
X2764Y758902D01*
X2739Y758871D01*
X2688Y758763D01*
X2630Y758659D01*
X2620Y758619D01*
X2603Y758583D01*
X2581Y758466D01*
X2551Y758351D01*
X2547Y758291D01*
X2543Y758271D01*
X2545Y758250D01*
X2541Y758190D01*
X2541Y3810D01*
X2556Y3692D01*
X2563Y3573D01*
X2576Y3535D01*
X2581Y3494D01*
X2624Y3384D01*
X2661Y3271D01*
X2683Y3236D01*
X2698Y3199D01*
X2767Y3103D01*
X2831Y3002D01*
X2861Y2974D01*
X2884Y2941D01*
X2976Y2865D01*
X3063Y2784D01*
X3098Y2764D01*
X3129Y2739D01*
X3237Y2688D01*
X3341Y2630D01*
X3381Y2620D01*
X3417Y2603D01*
X3534Y2581D01*
X3649Y2551D01*
X3709Y2547D01*
X3729Y2543D01*
X3750Y2545D01*
X3810Y2541D01*
X1012190Y2541D01*
X1012308Y2556D01*
G37*
%LPC*%
G36*
X973226Y700404D02*
X973226Y700404D01*
X964591Y703981D01*
X957981Y710591D01*
X954404Y719226D01*
X954404Y728574D01*
X957981Y737209D01*
X964591Y743819D01*
X973226Y747396D01*
X982574Y747396D01*
X991209Y743819D01*
X997819Y737209D01*
X1001396Y728574D01*
X1001396Y719226D01*
X997819Y710591D01*
X991209Y703981D01*
X982574Y700404D01*
X973226Y700404D01*
G37*
%LPD*%
%LPC*%
G36*
X33426Y700404D02*
X33426Y700404D01*
X24791Y703981D01*
X18181Y710591D01*
X14604Y719226D01*
X14604Y728574D01*
X18181Y737209D01*
X24791Y743819D01*
X33426Y747396D01*
X42774Y747396D01*
X51409Y743819D01*
X58019Y737209D01*
X61596Y728574D01*
X61596Y719226D01*
X58019Y710591D01*
X51409Y703981D01*
X42774Y700404D01*
X33426Y700404D01*
G37*
%LPD*%
%LPC*%
G36*
X33426Y14604D02*
X33426Y14604D01*
X24791Y18181D01*
X18181Y24791D01*
X14604Y33426D01*
X14604Y42774D01*
X18181Y51409D01*
X24791Y58019D01*
X33426Y61596D01*
X42774Y61596D01*
X51409Y58019D01*
X58019Y51409D01*
X61596Y42774D01*
X61596Y33426D01*
X58019Y24791D01*
X51409Y18181D01*
X42774Y14604D01*
X33426Y14604D01*
G37*
%LPD*%
%LPC*%
G36*
X973226Y14604D02*
X973226Y14604D01*
X964591Y18181D01*
X957981Y24791D01*
X954404Y33426D01*
X954404Y42774D01*
X957981Y51409D01*
X964591Y58019D01*
X973226Y61596D01*
X982574Y61596D01*
X991209Y58019D01*
X997819Y51409D01*
X1001396Y42774D01*
X1001396Y33426D01*
X997819Y24791D01*
X991209Y18181D01*
X982574Y14604D01*
X973226Y14604D01*
G37*
%LPD*%
%LPC*%
G36*
X95484Y112059D02*
X95484Y112059D01*
X91206Y113831D01*
X87931Y117106D01*
X86159Y121384D01*
X86159Y126015D01*
X87105Y128300D01*
X87124Y128367D01*
X87152Y128431D01*
X87166Y128520D01*
X87189Y128606D01*
X87190Y128676D01*
X87201Y128745D01*
X87193Y128835D01*
X87194Y128924D01*
X87178Y128992D01*
X87172Y129062D01*
X87141Y129146D01*
X87120Y129234D01*
X87088Y129295D01*
X87064Y129361D01*
X87014Y129435D01*
X86972Y129515D01*
X86925Y129566D01*
X86885Y129624D01*
X86818Y129684D01*
X86758Y129750D01*
X86699Y129788D01*
X86647Y129835D01*
X86567Y129875D01*
X86492Y129925D01*
X86426Y129947D01*
X86364Y129979D01*
X86276Y129999D01*
X86191Y130028D01*
X86122Y130034D01*
X86053Y130049D01*
X85964Y130046D01*
X85874Y130053D01*
X85805Y130041D01*
X85736Y130039D01*
X85649Y130014D01*
X85561Y129999D01*
X85497Y129970D01*
X85430Y129951D01*
X85353Y129905D01*
X85271Y129868D01*
X85216Y129825D01*
X85156Y129789D01*
X85035Y129683D01*
X84190Y128838D01*
X79655Y126959D01*
X74745Y126959D01*
X70210Y128838D01*
X66738Y132310D01*
X64859Y136845D01*
X64859Y141755D01*
X66738Y146290D01*
X70210Y149762D01*
X74745Y151641D01*
X79655Y151641D01*
X84190Y149762D01*
X87662Y146290D01*
X89541Y141755D01*
X89541Y136845D01*
X88488Y134304D01*
X88470Y134237D01*
X88442Y134172D01*
X88428Y134084D01*
X88404Y133997D01*
X88403Y133927D01*
X88392Y133858D01*
X88400Y133769D01*
X88399Y133679D01*
X88415Y133611D01*
X88422Y133542D01*
X88452Y133457D01*
X88473Y133370D01*
X88506Y133308D01*
X88529Y133242D01*
X88580Y133168D01*
X88622Y133089D01*
X88669Y133037D01*
X88708Y132979D01*
X88775Y132920D01*
X88836Y132853D01*
X88894Y132815D01*
X88946Y132769D01*
X89026Y132728D01*
X89102Y132679D01*
X89168Y132656D01*
X89230Y132624D01*
X89317Y132605D01*
X89402Y132575D01*
X89472Y132570D01*
X89540Y132555D01*
X89630Y132557D01*
X89719Y132550D01*
X89788Y132562D01*
X89858Y132564D01*
X89944Y132589D01*
X90033Y132605D01*
X90096Y132633D01*
X90163Y132653D01*
X90241Y132698D01*
X90323Y132735D01*
X90377Y132779D01*
X90437Y132814D01*
X90558Y132921D01*
X91206Y133569D01*
X95484Y135341D01*
X100116Y135341D01*
X104394Y133569D01*
X107669Y130294D01*
X109441Y126016D01*
X109441Y121384D01*
X107669Y117106D01*
X104394Y113831D01*
X100116Y112059D01*
X95484Y112059D01*
G37*
%LPD*%
%LPC*%
G36*
X711245Y660559D02*
X711245Y660559D01*
X706636Y662468D01*
X703108Y665996D01*
X701199Y670605D01*
X701199Y675595D01*
X703108Y680204D01*
X706636Y683732D01*
X711245Y685641D01*
X716235Y685641D01*
X720844Y683732D01*
X724372Y680204D01*
X726281Y675595D01*
X726281Y670605D01*
X724372Y665996D01*
X720844Y662468D01*
X716235Y660559D01*
X711245Y660559D01*
G37*
%LPD*%
%LPC*%
G36*
X274365Y660559D02*
X274365Y660559D01*
X269756Y662468D01*
X266228Y665996D01*
X264319Y670605D01*
X264319Y675595D01*
X266228Y680204D01*
X269756Y683732D01*
X274365Y685641D01*
X279355Y685641D01*
X283964Y683732D01*
X287492Y680204D01*
X289401Y675595D01*
X289401Y670605D01*
X287492Y665996D01*
X283964Y662468D01*
X279355Y660559D01*
X274365Y660559D01*
G37*
%LPD*%
%LPC*%
G36*
X274365Y431959D02*
X274365Y431959D01*
X269756Y433868D01*
X266228Y437396D01*
X264319Y442005D01*
X264319Y446995D01*
X266228Y451604D01*
X269756Y455132D01*
X274365Y457041D01*
X279355Y457041D01*
X283964Y455132D01*
X287492Y451604D01*
X289401Y446995D01*
X289401Y442005D01*
X287492Y437396D01*
X283964Y433868D01*
X279355Y431959D01*
X274365Y431959D01*
G37*
%LPD*%
%LPC*%
G36*
X711245Y431959D02*
X711245Y431959D01*
X706636Y433868D01*
X703108Y437396D01*
X701199Y442005D01*
X701199Y446995D01*
X703108Y451604D01*
X706636Y455132D01*
X711245Y457041D01*
X716235Y457041D01*
X720844Y455132D01*
X724372Y451604D01*
X726281Y446995D01*
X726281Y442005D01*
X724372Y437396D01*
X720844Y433868D01*
X716235Y431959D01*
X711245Y431959D01*
G37*
%LPD*%
%LPC*%
G36*
X620845Y126959D02*
X620845Y126959D01*
X616310Y128838D01*
X612838Y132310D01*
X610959Y136845D01*
X610959Y141755D01*
X612838Y146290D01*
X616310Y149762D01*
X620845Y151641D01*
X625755Y151641D01*
X630290Y149762D01*
X633762Y146290D01*
X635641Y141755D01*
X635641Y136845D01*
X633762Y132310D01*
X630290Y128838D01*
X625755Y126959D01*
X620845Y126959D01*
G37*
%LPD*%
%LPC*%
G36*
X745845Y126959D02*
X745845Y126959D01*
X741310Y128838D01*
X737838Y132310D01*
X735959Y136845D01*
X735959Y141755D01*
X737838Y146290D01*
X741310Y149762D01*
X745845Y151641D01*
X750755Y151641D01*
X755290Y149762D01*
X758762Y146290D01*
X760641Y141755D01*
X760641Y136845D01*
X758762Y132310D01*
X755290Y128838D01*
X750755Y126959D01*
X745845Y126959D01*
G37*
%LPD*%
%LPC*%
G36*
X798645Y126959D02*
X798645Y126959D01*
X794110Y128838D01*
X790638Y132310D01*
X788759Y136845D01*
X788759Y141755D01*
X790638Y146290D01*
X794110Y149762D01*
X798645Y151641D01*
X803555Y151641D01*
X808090Y149762D01*
X811562Y146290D01*
X813441Y141755D01*
X813441Y136845D01*
X811562Y132310D01*
X808090Y128838D01*
X803555Y126959D01*
X798645Y126959D01*
G37*
%LPD*%
%LPC*%
G36*
X923645Y126959D02*
X923645Y126959D01*
X919110Y128838D01*
X915638Y132310D01*
X913759Y136845D01*
X913759Y141755D01*
X915638Y146290D01*
X919110Y149762D01*
X923645Y151641D01*
X928555Y151641D01*
X933090Y149762D01*
X936562Y146290D01*
X938441Y141755D01*
X938441Y136845D01*
X936562Y132310D01*
X933090Y128838D01*
X928555Y126959D01*
X923645Y126959D01*
G37*
%LPD*%
%LPC*%
G36*
X199745Y126959D02*
X199745Y126959D01*
X195210Y128838D01*
X191738Y132310D01*
X189859Y136845D01*
X189859Y141755D01*
X191738Y146290D01*
X195210Y149762D01*
X199745Y151641D01*
X204655Y151641D01*
X209190Y149762D01*
X212662Y146290D01*
X214541Y141755D01*
X214541Y136845D01*
X212662Y132310D01*
X209190Y128838D01*
X204655Y126959D01*
X199745Y126959D01*
G37*
%LPD*%
%LPC*%
G36*
X620845Y76959D02*
X620845Y76959D01*
X616310Y78838D01*
X612838Y82310D01*
X610959Y86845D01*
X610959Y91755D01*
X612838Y96290D01*
X616310Y99762D01*
X620845Y101641D01*
X625755Y101641D01*
X630290Y99762D01*
X633762Y96290D01*
X635641Y91755D01*
X635641Y86845D01*
X633762Y82310D01*
X630290Y78838D01*
X625755Y76959D01*
X620845Y76959D01*
G37*
%LPD*%
%LPC*%
G36*
X390245Y126959D02*
X390245Y126959D01*
X385710Y128838D01*
X382238Y132310D01*
X380359Y136845D01*
X380359Y141755D01*
X382238Y146290D01*
X385710Y149762D01*
X390245Y151641D01*
X395155Y151641D01*
X399690Y149762D01*
X403162Y146290D01*
X405041Y141755D01*
X405041Y136845D01*
X403162Y132310D01*
X399690Y128838D01*
X395155Y126959D01*
X390245Y126959D01*
G37*
%LPD*%
%LPC*%
G36*
X443045Y126959D02*
X443045Y126959D01*
X438510Y128838D01*
X435038Y132310D01*
X433159Y136845D01*
X433159Y141755D01*
X435038Y146290D01*
X438510Y149762D01*
X443045Y151641D01*
X447955Y151641D01*
X452490Y149762D01*
X455962Y146290D01*
X457841Y141755D01*
X457841Y136845D01*
X455962Y132310D01*
X452490Y128838D01*
X447955Y126959D01*
X443045Y126959D01*
G37*
%LPD*%
%LPC*%
G36*
X568045Y126959D02*
X568045Y126959D01*
X563510Y128838D01*
X560038Y132310D01*
X558159Y136845D01*
X558159Y141755D01*
X560038Y146290D01*
X563510Y149762D01*
X568045Y151641D01*
X572955Y151641D01*
X577490Y149762D01*
X580962Y146290D01*
X582841Y141755D01*
X582841Y136845D01*
X580962Y132310D01*
X577490Y128838D01*
X572955Y126959D01*
X568045Y126959D01*
G37*
%LPD*%
%LPC*%
G36*
X265245Y126959D02*
X265245Y126959D01*
X260710Y128838D01*
X257238Y132310D01*
X255359Y136845D01*
X255359Y141755D01*
X257238Y146290D01*
X260710Y149762D01*
X265245Y151641D01*
X270155Y151641D01*
X274690Y149762D01*
X278162Y146290D01*
X280041Y141755D01*
X280041Y136845D01*
X278162Y132310D01*
X274690Y128838D01*
X270155Y126959D01*
X265245Y126959D01*
G37*
%LPD*%
%LPC*%
G36*
X923645Y76959D02*
X923645Y76959D01*
X919110Y78838D01*
X915638Y82310D01*
X913759Y86845D01*
X913759Y91755D01*
X915638Y96290D01*
X919110Y99762D01*
X923645Y101641D01*
X928555Y101641D01*
X933090Y99762D01*
X936562Y96290D01*
X938441Y91755D01*
X938441Y86845D01*
X936562Y82310D01*
X933090Y78838D01*
X928555Y76959D01*
X923645Y76959D01*
G37*
%LPD*%
%LPC*%
G36*
X798645Y76959D02*
X798645Y76959D01*
X794110Y78838D01*
X790638Y82310D01*
X788759Y86845D01*
X788759Y91755D01*
X790638Y96290D01*
X794110Y99762D01*
X798645Y101641D01*
X803555Y101641D01*
X808090Y99762D01*
X811562Y96290D01*
X813441Y91755D01*
X813441Y86845D01*
X811562Y82310D01*
X808090Y78838D01*
X803555Y76959D01*
X798645Y76959D01*
G37*
%LPD*%
%LPC*%
G36*
X745845Y76959D02*
X745845Y76959D01*
X741310Y78838D01*
X737838Y82310D01*
X735959Y86845D01*
X735959Y91755D01*
X737838Y96290D01*
X741310Y99762D01*
X745845Y101641D01*
X750755Y101641D01*
X755290Y99762D01*
X758762Y96290D01*
X760641Y91755D01*
X760641Y86845D01*
X758762Y82310D01*
X755290Y78838D01*
X750755Y76959D01*
X745845Y76959D01*
G37*
%LPD*%
%LPC*%
G36*
X568045Y76959D02*
X568045Y76959D01*
X563510Y78838D01*
X560038Y82310D01*
X558159Y86845D01*
X558159Y91755D01*
X560038Y96290D01*
X563510Y99762D01*
X568045Y101641D01*
X572955Y101641D01*
X577490Y99762D01*
X580962Y96290D01*
X582841Y91755D01*
X582841Y86845D01*
X580962Y82310D01*
X577490Y78838D01*
X572955Y76959D01*
X568045Y76959D01*
G37*
%LPD*%
%LPC*%
G36*
X443045Y76959D02*
X443045Y76959D01*
X438510Y78838D01*
X435038Y82310D01*
X433159Y86845D01*
X433159Y91755D01*
X435038Y96290D01*
X438510Y99762D01*
X443045Y101641D01*
X447955Y101641D01*
X452490Y99762D01*
X455962Y96290D01*
X457841Y91755D01*
X457841Y86845D01*
X455962Y82310D01*
X452490Y78838D01*
X447955Y76959D01*
X443045Y76959D01*
G37*
%LPD*%
%LPC*%
G36*
X390245Y76959D02*
X390245Y76959D01*
X385710Y78838D01*
X382238Y82310D01*
X380359Y86845D01*
X380359Y91755D01*
X382238Y96290D01*
X385710Y99762D01*
X390245Y101641D01*
X395155Y101641D01*
X399690Y99762D01*
X403162Y96290D01*
X405041Y91755D01*
X405041Y86845D01*
X403162Y82310D01*
X399690Y78838D01*
X395155Y76959D01*
X390245Y76959D01*
G37*
%LPD*%
%LPC*%
G36*
X265245Y76959D02*
X265245Y76959D01*
X260710Y78838D01*
X257238Y82310D01*
X255359Y86845D01*
X255359Y91755D01*
X257238Y96290D01*
X260710Y99762D01*
X265245Y101641D01*
X270155Y101641D01*
X274690Y99762D01*
X278162Y96290D01*
X280041Y91755D01*
X280041Y86845D01*
X278162Y82310D01*
X274690Y78838D01*
X270155Y76959D01*
X265245Y76959D01*
G37*
%LPD*%
%LPC*%
G36*
X199745Y76959D02*
X199745Y76959D01*
X195210Y78838D01*
X191738Y82310D01*
X189859Y86845D01*
X189859Y91755D01*
X191738Y96290D01*
X195210Y99762D01*
X199745Y101641D01*
X204655Y101641D01*
X209190Y99762D01*
X212662Y96290D01*
X214541Y91755D01*
X214541Y86845D01*
X212662Y82310D01*
X209190Y78838D01*
X204655Y76959D01*
X199745Y76959D01*
G37*
%LPD*%
%LPC*%
G36*
X74745Y76959D02*
X74745Y76959D01*
X70210Y78838D01*
X66738Y82310D01*
X64859Y86845D01*
X64859Y91755D01*
X66738Y96290D01*
X70210Y99762D01*
X74745Y101641D01*
X79655Y101641D01*
X84190Y99762D01*
X87662Y96290D01*
X89541Y91755D01*
X89541Y86845D01*
X87662Y82310D01*
X84190Y78838D01*
X79655Y76959D01*
X74745Y76959D01*
G37*
%LPD*%
%LPC*%
G36*
X348884Y112059D02*
X348884Y112059D01*
X344606Y113831D01*
X341331Y117106D01*
X339559Y121384D01*
X339559Y126016D01*
X341331Y130294D01*
X344606Y133569D01*
X348884Y135341D01*
X353516Y135341D01*
X357794Y133569D01*
X361069Y130294D01*
X362841Y126016D01*
X362841Y121384D01*
X361069Y117106D01*
X357794Y113831D01*
X353516Y112059D01*
X348884Y112059D01*
G37*
%LPD*%
%LPC*%
G36*
X145884Y112059D02*
X145884Y112059D01*
X141606Y113831D01*
X138331Y117106D01*
X136559Y121384D01*
X136559Y126016D01*
X138331Y130294D01*
X141606Y133569D01*
X145884Y135341D01*
X150516Y135341D01*
X154794Y133569D01*
X158069Y130294D01*
X159841Y126016D01*
X159841Y121384D01*
X158069Y117106D01*
X154794Y113831D01*
X150516Y112059D01*
X145884Y112059D01*
G37*
%LPD*%
%LPC*%
G36*
X145884Y37059D02*
X145884Y37059D01*
X141606Y38831D01*
X138331Y42106D01*
X136559Y46384D01*
X136559Y51016D01*
X138331Y55294D01*
X141606Y58569D01*
X145884Y60341D01*
X150516Y60341D01*
X154794Y58569D01*
X158069Y55294D01*
X159841Y51016D01*
X159841Y46384D01*
X158069Y42106D01*
X154794Y38831D01*
X150516Y37059D01*
X145884Y37059D01*
G37*
%LPD*%
%LPC*%
G36*
X95484Y37059D02*
X95484Y37059D01*
X91206Y38831D01*
X87931Y42106D01*
X86159Y46384D01*
X86159Y51016D01*
X87931Y55294D01*
X91206Y58569D01*
X95484Y60341D01*
X100116Y60341D01*
X104394Y58569D01*
X107669Y55294D01*
X109441Y51016D01*
X109441Y46384D01*
X107669Y42106D01*
X104394Y38831D01*
X100116Y37059D01*
X95484Y37059D01*
G37*
%LPD*%
%LPC*%
G36*
X483220Y663447D02*
X483220Y663447D01*
X479672Y664917D01*
X476957Y667632D01*
X475487Y671180D01*
X475487Y675020D01*
X476957Y678568D01*
X479672Y681283D01*
X483220Y682753D01*
X487060Y682753D01*
X490608Y681283D01*
X493323Y678568D01*
X494793Y675020D01*
X494793Y671180D01*
X493323Y667632D01*
X490608Y664917D01*
X487060Y663447D01*
X483220Y663447D01*
G37*
%LPD*%
%LPC*%
G36*
X508620Y663447D02*
X508620Y663447D01*
X505072Y664917D01*
X502357Y667632D01*
X500887Y671180D01*
X500887Y675020D01*
X502357Y678568D01*
X505072Y681283D01*
X508620Y682753D01*
X512460Y682753D01*
X516008Y681283D01*
X518723Y678568D01*
X520193Y675020D01*
X520193Y671180D01*
X518723Y667632D01*
X516008Y664917D01*
X512460Y663447D01*
X508620Y663447D01*
G37*
%LPD*%
%LPC*%
G36*
X534020Y663447D02*
X534020Y663447D01*
X530472Y664917D01*
X527757Y667632D01*
X526287Y671180D01*
X526287Y675020D01*
X527757Y678568D01*
X530472Y681283D01*
X534020Y682753D01*
X537860Y682753D01*
X541408Y681283D01*
X544123Y678568D01*
X545593Y675020D01*
X545593Y671180D01*
X544123Y667632D01*
X541408Y664917D01*
X537860Y663447D01*
X534020Y663447D01*
G37*
%LPD*%
%LPC*%
G36*
X171657Y578236D02*
X171657Y578236D01*
X168436Y579570D01*
X165970Y582036D01*
X164636Y585257D01*
X164636Y588743D01*
X165970Y591964D01*
X168436Y594430D01*
X171657Y595764D01*
X175143Y595764D01*
X178364Y594430D01*
X180830Y591964D01*
X182164Y588743D01*
X182164Y585257D01*
X180830Y582036D01*
X178364Y579570D01*
X175143Y578236D01*
X171657Y578236D01*
G37*
%LPD*%
%LPC*%
G36*
X146257Y578236D02*
X146257Y578236D01*
X143036Y579570D01*
X140570Y582036D01*
X139236Y585257D01*
X139236Y588743D01*
X140570Y591964D01*
X143036Y594430D01*
X146257Y595764D01*
X149743Y595764D01*
X152964Y594430D01*
X155430Y591964D01*
X156764Y588743D01*
X156764Y585257D01*
X155430Y582036D01*
X152964Y579570D01*
X149743Y578236D01*
X146257Y578236D01*
G37*
%LPD*%
%LPC*%
G36*
X120857Y578236D02*
X120857Y578236D01*
X117636Y579570D01*
X115170Y582036D01*
X113836Y585257D01*
X113836Y588743D01*
X115170Y591964D01*
X117636Y594430D01*
X120857Y595764D01*
X124343Y595764D01*
X127564Y594430D01*
X130030Y591964D01*
X131364Y588743D01*
X131364Y585257D01*
X130030Y582036D01*
X127564Y579570D01*
X124343Y578236D01*
X120857Y578236D01*
G37*
%LPD*%
%LPC*%
G36*
X501857Y552836D02*
X501857Y552836D01*
X498636Y554170D01*
X496170Y556636D01*
X494836Y559857D01*
X494836Y563343D01*
X496170Y566564D01*
X498636Y569030D01*
X501857Y570364D01*
X505343Y570364D01*
X508564Y569030D01*
X511030Y566564D01*
X512364Y563343D01*
X512364Y559857D01*
X511030Y556636D01*
X508564Y554170D01*
X505343Y552836D01*
X501857Y552836D01*
G37*
%LPD*%
%LPC*%
G36*
X476457Y552836D02*
X476457Y552836D01*
X473236Y554170D01*
X470770Y556636D01*
X469436Y559857D01*
X469436Y563343D01*
X470770Y566564D01*
X473236Y569030D01*
X476457Y570364D01*
X479943Y570364D01*
X483164Y569030D01*
X485630Y566564D01*
X486964Y563343D01*
X486964Y559857D01*
X485630Y556636D01*
X483164Y554170D01*
X479943Y552836D01*
X476457Y552836D01*
G37*
%LPD*%
%LPC*%
G36*
X451057Y552836D02*
X451057Y552836D01*
X447836Y554170D01*
X445370Y556636D01*
X444036Y559857D01*
X444036Y563343D01*
X445370Y566564D01*
X447836Y569030D01*
X451057Y570364D01*
X454543Y570364D01*
X457764Y569030D01*
X460230Y566564D01*
X461564Y563343D01*
X461564Y559857D01*
X460230Y556636D01*
X457764Y554170D01*
X454543Y552836D01*
X451057Y552836D01*
G37*
%LPD*%
%LPC*%
G36*
X425657Y552836D02*
X425657Y552836D01*
X422436Y554170D01*
X419970Y556636D01*
X418636Y559857D01*
X418636Y563343D01*
X419970Y566564D01*
X422436Y569030D01*
X425657Y570364D01*
X429143Y570364D01*
X432364Y569030D01*
X434830Y566564D01*
X436164Y563343D01*
X436164Y559857D01*
X434830Y556636D01*
X432364Y554170D01*
X429143Y552836D01*
X425657Y552836D01*
G37*
%LPD*%
%LPC*%
G36*
X400257Y552836D02*
X400257Y552836D01*
X397036Y554170D01*
X394570Y556636D01*
X393236Y559857D01*
X393236Y563343D01*
X394570Y566564D01*
X397036Y569030D01*
X400257Y570364D01*
X403743Y570364D01*
X406964Y569030D01*
X409430Y566564D01*
X410764Y563343D01*
X410764Y559857D01*
X409430Y556636D01*
X406964Y554170D01*
X403743Y552836D01*
X400257Y552836D01*
G37*
%LPD*%
%LPC*%
G36*
X374857Y552836D02*
X374857Y552836D01*
X371636Y554170D01*
X369170Y556636D01*
X367836Y559857D01*
X367836Y563343D01*
X369170Y566564D01*
X371636Y569030D01*
X374857Y570364D01*
X378343Y570364D01*
X381564Y569030D01*
X384030Y566564D01*
X385364Y563343D01*
X385364Y559857D01*
X384030Y556636D01*
X381564Y554170D01*
X378343Y552836D01*
X374857Y552836D01*
G37*
%LPD*%
%LPC*%
G36*
X349457Y552836D02*
X349457Y552836D01*
X346236Y554170D01*
X343770Y556636D01*
X342436Y559857D01*
X342436Y563343D01*
X343770Y566564D01*
X346236Y569030D01*
X349457Y570364D01*
X352943Y570364D01*
X356164Y569030D01*
X358630Y566564D01*
X359964Y563343D01*
X359964Y559857D01*
X358630Y556636D01*
X356164Y554170D01*
X352943Y552836D01*
X349457Y552836D01*
G37*
%LPD*%
%LPC*%
G36*
X324057Y552836D02*
X324057Y552836D01*
X320836Y554170D01*
X318370Y556636D01*
X317036Y559857D01*
X317036Y563343D01*
X318370Y566564D01*
X320836Y569030D01*
X324057Y570364D01*
X327543Y570364D01*
X330764Y569030D01*
X333230Y566564D01*
X334564Y563343D01*
X334564Y559857D01*
X333230Y556636D01*
X330764Y554170D01*
X327543Y552836D01*
X324057Y552836D01*
G37*
%LPD*%
%LPC*%
G36*
X298657Y552836D02*
X298657Y552836D01*
X295436Y554170D01*
X292970Y556636D01*
X291636Y559857D01*
X291636Y563343D01*
X292970Y566564D01*
X295436Y569030D01*
X298657Y570364D01*
X302143Y570364D01*
X305364Y569030D01*
X307830Y566564D01*
X309164Y563343D01*
X309164Y559857D01*
X307830Y556636D01*
X305364Y554170D01*
X302143Y552836D01*
X298657Y552836D01*
G37*
%LPD*%
%LPC*%
G36*
X273257Y552836D02*
X273257Y552836D01*
X270036Y554170D01*
X267570Y556636D01*
X266236Y559857D01*
X266236Y563343D01*
X267570Y566564D01*
X270036Y569030D01*
X273257Y570364D01*
X276743Y570364D01*
X279964Y569030D01*
X282430Y566564D01*
X283764Y563343D01*
X283764Y559857D01*
X282430Y556636D01*
X279964Y554170D01*
X276743Y552836D01*
X273257Y552836D01*
G37*
%LPD*%
%LPC*%
G36*
X247857Y552836D02*
X247857Y552836D01*
X244636Y554170D01*
X242170Y556636D01*
X240836Y559857D01*
X240836Y563343D01*
X242170Y566564D01*
X244636Y569030D01*
X247857Y570364D01*
X251343Y570364D01*
X254564Y569030D01*
X257030Y566564D01*
X258364Y563343D01*
X258364Y559857D01*
X257030Y556636D01*
X254564Y554170D01*
X251343Y552836D01*
X247857Y552836D01*
G37*
%LPD*%
%LPC*%
G36*
X197057Y552836D02*
X197057Y552836D01*
X193836Y554170D01*
X191370Y556636D01*
X190036Y559857D01*
X190036Y563343D01*
X191370Y566564D01*
X193836Y569030D01*
X197057Y570364D01*
X200543Y570364D01*
X203764Y569030D01*
X206230Y566564D01*
X207564Y563343D01*
X207564Y559857D01*
X206230Y556636D01*
X203764Y554170D01*
X200543Y552836D01*
X197057Y552836D01*
G37*
%LPD*%
%LPC*%
G36*
X171657Y552836D02*
X171657Y552836D01*
X168436Y554170D01*
X165970Y556636D01*
X164636Y559857D01*
X164636Y563343D01*
X165970Y566564D01*
X168436Y569030D01*
X171657Y570364D01*
X175143Y570364D01*
X178364Y569030D01*
X180830Y566564D01*
X182164Y563343D01*
X182164Y559857D01*
X180830Y556636D01*
X178364Y554170D01*
X175143Y552836D01*
X171657Y552836D01*
G37*
%LPD*%
%LPC*%
G36*
X146257Y552836D02*
X146257Y552836D01*
X143036Y554170D01*
X140570Y556636D01*
X139236Y559857D01*
X139236Y563343D01*
X140570Y566564D01*
X143036Y569030D01*
X146257Y570364D01*
X149743Y570364D01*
X152964Y569030D01*
X155430Y566564D01*
X156764Y563343D01*
X156764Y559857D01*
X155430Y556636D01*
X152964Y554170D01*
X149743Y552836D01*
X146257Y552836D01*
G37*
%LPD*%
%LPC*%
G36*
X120857Y552836D02*
X120857Y552836D01*
X117636Y554170D01*
X115170Y556636D01*
X113836Y559857D01*
X113836Y563343D01*
X115170Y566564D01*
X117636Y569030D01*
X120857Y570364D01*
X124343Y570364D01*
X127564Y569030D01*
X130030Y566564D01*
X131364Y563343D01*
X131364Y559857D01*
X130030Y556636D01*
X127564Y554170D01*
X124343Y552836D01*
X120857Y552836D01*
G37*
%LPD*%
%LPC*%
G36*
X95457Y552836D02*
X95457Y552836D01*
X92236Y554170D01*
X89770Y556636D01*
X88436Y559857D01*
X88436Y563343D01*
X89770Y566564D01*
X92236Y569030D01*
X95457Y570364D01*
X98943Y570364D01*
X102164Y569030D01*
X104630Y566564D01*
X105964Y563343D01*
X105964Y559857D01*
X104630Y556636D01*
X102164Y554170D01*
X98943Y552836D01*
X95457Y552836D01*
G37*
%LPD*%
%LPC*%
G36*
X70057Y552836D02*
X70057Y552836D01*
X66836Y554170D01*
X64370Y556636D01*
X63036Y559857D01*
X63036Y563343D01*
X64370Y566564D01*
X66836Y569030D01*
X70057Y570364D01*
X73543Y570364D01*
X76764Y569030D01*
X79230Y566564D01*
X80564Y563343D01*
X80564Y559857D01*
X79230Y556636D01*
X76764Y554170D01*
X73543Y552836D01*
X70057Y552836D01*
G37*
%LPD*%
%LPC*%
G36*
X95457Y324236D02*
X95457Y324236D01*
X92236Y325570D01*
X89770Y328036D01*
X88436Y331257D01*
X88436Y334743D01*
X89770Y337964D01*
X92236Y340430D01*
X95457Y341764D01*
X98943Y341764D01*
X102164Y340430D01*
X104630Y337964D01*
X105964Y334743D01*
X105964Y331257D01*
X104630Y328036D01*
X102164Y325570D01*
X98943Y324236D01*
X95457Y324236D01*
G37*
%LPD*%
%LPC*%
G36*
X70057Y324236D02*
X70057Y324236D01*
X66836Y325570D01*
X64370Y328036D01*
X63036Y331257D01*
X63036Y334743D01*
X64370Y337964D01*
X66836Y340430D01*
X70057Y341764D01*
X73543Y341764D01*
X76764Y340430D01*
X79230Y337964D01*
X80564Y334743D01*
X80564Y331257D01*
X79230Y328036D01*
X76764Y325570D01*
X73543Y324236D01*
X70057Y324236D01*
G37*
%LPD*%
%LPC*%
G36*
X501857Y324236D02*
X501857Y324236D01*
X498636Y325570D01*
X496170Y328036D01*
X494836Y331257D01*
X494836Y334743D01*
X496170Y337964D01*
X498636Y340430D01*
X501857Y341764D01*
X505343Y341764D01*
X508564Y340430D01*
X511030Y337964D01*
X512364Y334743D01*
X512364Y331257D01*
X511030Y328036D01*
X508564Y325570D01*
X505343Y324236D01*
X501857Y324236D01*
G37*
%LPD*%
%LPC*%
G36*
X476457Y324236D02*
X476457Y324236D01*
X473236Y325570D01*
X470770Y328036D01*
X469436Y331257D01*
X469436Y334743D01*
X470770Y337964D01*
X473236Y340430D01*
X476457Y341764D01*
X479943Y341764D01*
X483164Y340430D01*
X485630Y337964D01*
X486964Y334743D01*
X486964Y331257D01*
X485630Y328036D01*
X483164Y325570D01*
X479943Y324236D01*
X476457Y324236D01*
G37*
%LPD*%
%LPC*%
G36*
X451057Y324236D02*
X451057Y324236D01*
X447836Y325570D01*
X445370Y328036D01*
X444036Y331257D01*
X444036Y334743D01*
X445370Y337964D01*
X447836Y340430D01*
X451057Y341764D01*
X454543Y341764D01*
X457764Y340430D01*
X460230Y337964D01*
X461564Y334743D01*
X461564Y331257D01*
X460230Y328036D01*
X457764Y325570D01*
X454543Y324236D01*
X451057Y324236D01*
G37*
%LPD*%
%LPC*%
G36*
X425657Y324236D02*
X425657Y324236D01*
X422436Y325570D01*
X419970Y328036D01*
X418636Y331257D01*
X418636Y334743D01*
X419970Y337964D01*
X422436Y340430D01*
X425657Y341764D01*
X429143Y341764D01*
X432364Y340430D01*
X434830Y337964D01*
X436164Y334743D01*
X436164Y331257D01*
X434830Y328036D01*
X432364Y325570D01*
X429143Y324236D01*
X425657Y324236D01*
G37*
%LPD*%
%LPC*%
G36*
X400257Y324236D02*
X400257Y324236D01*
X397036Y325570D01*
X394570Y328036D01*
X393236Y331257D01*
X393236Y334743D01*
X394570Y337964D01*
X397036Y340430D01*
X400257Y341764D01*
X403743Y341764D01*
X406964Y340430D01*
X409430Y337964D01*
X410764Y334743D01*
X410764Y331257D01*
X409430Y328036D01*
X406964Y325570D01*
X403743Y324236D01*
X400257Y324236D01*
G37*
%LPD*%
%LPC*%
G36*
X70057Y578236D02*
X70057Y578236D01*
X66836Y579570D01*
X64370Y582036D01*
X63036Y585257D01*
X63036Y588743D01*
X64370Y591964D01*
X66836Y594430D01*
X70057Y595764D01*
X73543Y595764D01*
X76764Y594430D01*
X79230Y591964D01*
X80564Y588743D01*
X80564Y585257D01*
X79230Y582036D01*
X76764Y579570D01*
X73543Y578236D01*
X70057Y578236D01*
G37*
%LPD*%
%LPC*%
G36*
X324057Y324236D02*
X324057Y324236D01*
X320836Y325570D01*
X318370Y328036D01*
X317036Y331257D01*
X317036Y334743D01*
X318370Y337964D01*
X320836Y340430D01*
X324057Y341764D01*
X327543Y341764D01*
X330764Y340430D01*
X333230Y337964D01*
X334564Y334743D01*
X334564Y331257D01*
X333230Y328036D01*
X330764Y325570D01*
X327543Y324236D01*
X324057Y324236D01*
G37*
%LPD*%
%LPC*%
G36*
X298657Y324236D02*
X298657Y324236D01*
X295436Y325570D01*
X292970Y328036D01*
X291636Y331257D01*
X291636Y334743D01*
X292970Y337964D01*
X295436Y340430D01*
X298657Y341764D01*
X302143Y341764D01*
X305364Y340430D01*
X307830Y337964D01*
X309164Y334743D01*
X309164Y331257D01*
X307830Y328036D01*
X305364Y325570D01*
X302143Y324236D01*
X298657Y324236D01*
G37*
%LPD*%
%LPC*%
G36*
X273257Y324236D02*
X273257Y324236D01*
X270036Y325570D01*
X267570Y328036D01*
X266236Y331257D01*
X266236Y334743D01*
X267570Y337964D01*
X270036Y340430D01*
X273257Y341764D01*
X276743Y341764D01*
X279964Y340430D01*
X282430Y337964D01*
X283764Y334743D01*
X283764Y331257D01*
X282430Y328036D01*
X279964Y325570D01*
X276743Y324236D01*
X273257Y324236D01*
G37*
%LPD*%
%LPC*%
G36*
X247857Y324236D02*
X247857Y324236D01*
X244636Y325570D01*
X242170Y328036D01*
X240836Y331257D01*
X240836Y334743D01*
X242170Y337964D01*
X244636Y340430D01*
X247857Y341764D01*
X251343Y341764D01*
X254564Y340430D01*
X257030Y337964D01*
X258364Y334743D01*
X258364Y331257D01*
X257030Y328036D01*
X254564Y325570D01*
X251343Y324236D01*
X247857Y324236D01*
G37*
%LPD*%
%LPC*%
G36*
X222457Y324236D02*
X222457Y324236D01*
X219236Y325570D01*
X216770Y328036D01*
X215436Y331257D01*
X215436Y334743D01*
X216770Y337964D01*
X219236Y340430D01*
X222457Y341764D01*
X225943Y341764D01*
X229164Y340430D01*
X231630Y337964D01*
X232964Y334743D01*
X232964Y331257D01*
X231630Y328036D01*
X229164Y325570D01*
X225943Y324236D01*
X222457Y324236D01*
G37*
%LPD*%
%LPC*%
G36*
X197057Y324236D02*
X197057Y324236D01*
X193836Y325570D01*
X191370Y328036D01*
X190036Y331257D01*
X190036Y334743D01*
X191370Y337964D01*
X193836Y340430D01*
X197057Y341764D01*
X200543Y341764D01*
X203764Y340430D01*
X206230Y337964D01*
X207564Y334743D01*
X207564Y331257D01*
X206230Y328036D01*
X203764Y325570D01*
X200543Y324236D01*
X197057Y324236D01*
G37*
%LPD*%
%LPC*%
G36*
X171657Y324236D02*
X171657Y324236D01*
X168436Y325570D01*
X165970Y328036D01*
X164636Y331257D01*
X164636Y334743D01*
X165970Y337964D01*
X168436Y340430D01*
X171657Y341764D01*
X175143Y341764D01*
X178364Y340430D01*
X180830Y337964D01*
X182164Y334743D01*
X182164Y331257D01*
X180830Y328036D01*
X178364Y325570D01*
X175143Y324236D01*
X171657Y324236D01*
G37*
%LPD*%
%LPC*%
G36*
X146257Y324236D02*
X146257Y324236D01*
X143036Y325570D01*
X140570Y328036D01*
X139236Y331257D01*
X139236Y334743D01*
X140570Y337964D01*
X143036Y340430D01*
X146257Y341764D01*
X149743Y341764D01*
X152964Y340430D01*
X155430Y337964D01*
X156764Y334743D01*
X156764Y331257D01*
X155430Y328036D01*
X152964Y325570D01*
X149743Y324236D01*
X146257Y324236D01*
G37*
%LPD*%
%LPC*%
G36*
X120857Y324236D02*
X120857Y324236D01*
X117636Y325570D01*
X115170Y328036D01*
X113836Y331257D01*
X113836Y334743D01*
X115170Y337964D01*
X117636Y340430D01*
X120857Y341764D01*
X124343Y341764D01*
X127564Y340430D01*
X130030Y337964D01*
X131364Y334743D01*
X131364Y331257D01*
X130030Y328036D01*
X127564Y325570D01*
X124343Y324236D01*
X120857Y324236D01*
G37*
%LPD*%
%LPC*%
G36*
X476457Y298836D02*
X476457Y298836D01*
X473236Y300170D01*
X470770Y302636D01*
X469436Y305857D01*
X469436Y309343D01*
X470770Y312564D01*
X473236Y315030D01*
X476457Y316364D01*
X479943Y316364D01*
X483164Y315030D01*
X485630Y312564D01*
X486964Y309343D01*
X486964Y305857D01*
X485630Y302636D01*
X483164Y300170D01*
X479943Y298836D01*
X476457Y298836D01*
G37*
%LPD*%
%LPC*%
G36*
X451057Y298836D02*
X451057Y298836D01*
X447836Y300170D01*
X445370Y302636D01*
X444036Y305857D01*
X444036Y309343D01*
X445370Y312564D01*
X447836Y315030D01*
X451057Y316364D01*
X454543Y316364D01*
X457764Y315030D01*
X460230Y312564D01*
X461564Y309343D01*
X461564Y305857D01*
X460230Y302636D01*
X457764Y300170D01*
X454543Y298836D01*
X451057Y298836D01*
G37*
%LPD*%
%LPC*%
G36*
X501857Y298836D02*
X501857Y298836D01*
X498636Y300170D01*
X496170Y302636D01*
X494836Y305857D01*
X494836Y309343D01*
X496170Y312564D01*
X498636Y315030D01*
X501857Y316364D01*
X505343Y316364D01*
X508564Y315030D01*
X511030Y312564D01*
X512364Y309343D01*
X512364Y305857D01*
X511030Y302636D01*
X508564Y300170D01*
X505343Y298836D01*
X501857Y298836D01*
G37*
%LPD*%
%LPC*%
G36*
X298657Y298836D02*
X298657Y298836D01*
X295436Y300170D01*
X292970Y302636D01*
X291636Y305857D01*
X291636Y309343D01*
X292970Y312564D01*
X295436Y315030D01*
X298657Y316364D01*
X302143Y316364D01*
X305364Y315030D01*
X307830Y312564D01*
X309164Y309343D01*
X309164Y305857D01*
X307830Y302636D01*
X305364Y300170D01*
X302143Y298836D01*
X298657Y298836D01*
G37*
%LPD*%
%LPC*%
G36*
X273257Y298836D02*
X273257Y298836D01*
X270036Y300170D01*
X267570Y302636D01*
X266236Y305857D01*
X266236Y309343D01*
X267570Y312564D01*
X270036Y315030D01*
X273257Y316364D01*
X276743Y316364D01*
X279964Y315030D01*
X282430Y312564D01*
X283764Y309343D01*
X283764Y305857D01*
X282430Y302636D01*
X279964Y300170D01*
X276743Y298836D01*
X273257Y298836D01*
G37*
%LPD*%
%LPC*%
G36*
X425657Y298836D02*
X425657Y298836D01*
X422436Y300170D01*
X419970Y302636D01*
X418636Y305857D01*
X418636Y309343D01*
X419970Y312564D01*
X422436Y315030D01*
X425657Y316364D01*
X429143Y316364D01*
X432364Y315030D01*
X434830Y312564D01*
X436164Y309343D01*
X436164Y305857D01*
X434830Y302636D01*
X432364Y300170D01*
X429143Y298836D01*
X425657Y298836D01*
G37*
%LPD*%
%LPC*%
G36*
X400257Y298836D02*
X400257Y298836D01*
X397036Y300170D01*
X394570Y302636D01*
X393236Y305857D01*
X393236Y309343D01*
X394570Y312564D01*
X397036Y315030D01*
X400257Y316364D01*
X403743Y316364D01*
X406964Y315030D01*
X409430Y312564D01*
X410764Y309343D01*
X410764Y305857D01*
X409430Y302636D01*
X406964Y300170D01*
X403743Y298836D01*
X400257Y298836D01*
G37*
%LPD*%
%LPC*%
G36*
X374857Y298836D02*
X374857Y298836D01*
X371636Y300170D01*
X369170Y302636D01*
X367836Y305857D01*
X367836Y309343D01*
X369170Y312564D01*
X371636Y315030D01*
X374857Y316364D01*
X378343Y316364D01*
X381564Y315030D01*
X384030Y312564D01*
X385364Y309343D01*
X385364Y305857D01*
X384030Y302636D01*
X381564Y300170D01*
X378343Y298836D01*
X374857Y298836D01*
G37*
%LPD*%
%LPC*%
G36*
X349457Y298836D02*
X349457Y298836D01*
X346236Y300170D01*
X343770Y302636D01*
X342436Y305857D01*
X342436Y309343D01*
X343770Y312564D01*
X346236Y315030D01*
X349457Y316364D01*
X352943Y316364D01*
X356164Y315030D01*
X358630Y312564D01*
X359964Y309343D01*
X359964Y305857D01*
X358630Y302636D01*
X356164Y300170D01*
X352943Y298836D01*
X349457Y298836D01*
G37*
%LPD*%
%LPC*%
G36*
X324057Y298836D02*
X324057Y298836D01*
X320836Y300170D01*
X318370Y302636D01*
X317036Y305857D01*
X317036Y309343D01*
X318370Y312564D01*
X320836Y315030D01*
X324057Y316364D01*
X327543Y316364D01*
X330764Y315030D01*
X333230Y312564D01*
X334564Y309343D01*
X334564Y305857D01*
X333230Y302636D01*
X330764Y300170D01*
X327543Y298836D01*
X324057Y298836D01*
G37*
%LPD*%
%LPC*%
G36*
X95457Y298836D02*
X95457Y298836D01*
X92236Y300170D01*
X89770Y302636D01*
X88436Y305857D01*
X88436Y309343D01*
X89770Y312564D01*
X92236Y315030D01*
X95457Y316364D01*
X98943Y316364D01*
X102164Y315030D01*
X104630Y312564D01*
X105964Y309343D01*
X105964Y305857D01*
X104630Y302636D01*
X102164Y300170D01*
X98943Y298836D01*
X95457Y298836D01*
G37*
%LPD*%
%LPC*%
G36*
X70057Y298836D02*
X70057Y298836D01*
X66836Y300170D01*
X64370Y302636D01*
X63036Y305857D01*
X63036Y309343D01*
X64370Y312564D01*
X66836Y315030D01*
X70057Y316364D01*
X73543Y316364D01*
X76764Y315030D01*
X79230Y312564D01*
X80564Y309343D01*
X80564Y305857D01*
X79230Y302636D01*
X76764Y300170D01*
X73543Y298836D01*
X70057Y298836D01*
G37*
%LPD*%
%LPC*%
G36*
X247857Y298836D02*
X247857Y298836D01*
X244636Y300170D01*
X242170Y302636D01*
X240836Y305857D01*
X240836Y309343D01*
X242170Y312564D01*
X244636Y315030D01*
X247857Y316364D01*
X251343Y316364D01*
X254564Y315030D01*
X257030Y312564D01*
X258364Y309343D01*
X258364Y305857D01*
X257030Y302636D01*
X254564Y300170D01*
X251343Y298836D01*
X247857Y298836D01*
G37*
%LPD*%
%LPC*%
G36*
X222457Y298836D02*
X222457Y298836D01*
X219236Y300170D01*
X216770Y302636D01*
X215436Y305857D01*
X215436Y309343D01*
X216770Y312564D01*
X219236Y315030D01*
X222457Y316364D01*
X225943Y316364D01*
X229164Y315030D01*
X231630Y312564D01*
X232964Y309343D01*
X232964Y305857D01*
X231630Y302636D01*
X229164Y300170D01*
X225943Y298836D01*
X222457Y298836D01*
G37*
%LPD*%
%LPC*%
G36*
X197057Y298836D02*
X197057Y298836D01*
X193836Y300170D01*
X191370Y302636D01*
X190036Y305857D01*
X190036Y309343D01*
X191370Y312564D01*
X193836Y315030D01*
X197057Y316364D01*
X200543Y316364D01*
X203764Y315030D01*
X206230Y312564D01*
X207564Y309343D01*
X207564Y305857D01*
X206230Y302636D01*
X203764Y300170D01*
X200543Y298836D01*
X197057Y298836D01*
G37*
%LPD*%
%LPC*%
G36*
X171657Y298836D02*
X171657Y298836D01*
X168436Y300170D01*
X165970Y302636D01*
X164636Y305857D01*
X164636Y309343D01*
X165970Y312564D01*
X168436Y315030D01*
X171657Y316364D01*
X175143Y316364D01*
X178364Y315030D01*
X180830Y312564D01*
X182164Y309343D01*
X182164Y305857D01*
X180830Y302636D01*
X178364Y300170D01*
X175143Y298836D01*
X171657Y298836D01*
G37*
%LPD*%
%LPC*%
G36*
X146257Y298836D02*
X146257Y298836D01*
X143036Y300170D01*
X140570Y302636D01*
X139236Y305857D01*
X139236Y309343D01*
X140570Y312564D01*
X143036Y315030D01*
X146257Y316364D01*
X149743Y316364D01*
X152964Y315030D01*
X155430Y312564D01*
X156764Y309343D01*
X156764Y305857D01*
X155430Y302636D01*
X152964Y300170D01*
X149743Y298836D01*
X146257Y298836D01*
G37*
%LPD*%
%LPC*%
G36*
X120857Y298836D02*
X120857Y298836D01*
X117636Y300170D01*
X115170Y302636D01*
X113836Y305857D01*
X113836Y309343D01*
X115170Y312564D01*
X117636Y315030D01*
X120857Y316364D01*
X124343Y316364D01*
X127564Y315030D01*
X130030Y312564D01*
X131364Y309343D01*
X131364Y305857D01*
X130030Y302636D01*
X127564Y300170D01*
X124343Y298836D01*
X120857Y298836D01*
G37*
%LPD*%
%LPC*%
G36*
X95457Y578236D02*
X95457Y578236D01*
X92236Y579570D01*
X89770Y582036D01*
X88436Y585257D01*
X88436Y588743D01*
X89770Y591964D01*
X92236Y594430D01*
X95457Y595764D01*
X98943Y595764D01*
X102164Y594430D01*
X104630Y591964D01*
X105964Y588743D01*
X105964Y585257D01*
X104630Y582036D01*
X102164Y579570D01*
X98943Y578236D01*
X95457Y578236D01*
G37*
%LPD*%
%LPC*%
G36*
X501857Y578236D02*
X501857Y578236D01*
X498636Y579570D01*
X496170Y582036D01*
X494836Y585257D01*
X494836Y588743D01*
X496170Y591964D01*
X498636Y594430D01*
X501857Y595764D01*
X505343Y595764D01*
X508564Y594430D01*
X511030Y591964D01*
X512364Y588743D01*
X512364Y585257D01*
X511030Y582036D01*
X508564Y579570D01*
X505343Y578236D01*
X501857Y578236D01*
G37*
%LPD*%
%LPC*%
G36*
X476457Y578236D02*
X476457Y578236D01*
X473236Y579570D01*
X470770Y582036D01*
X469436Y585257D01*
X469436Y588743D01*
X470770Y591964D01*
X473236Y594430D01*
X476457Y595764D01*
X479943Y595764D01*
X483164Y594430D01*
X485630Y591964D01*
X486964Y588743D01*
X486964Y585257D01*
X485630Y582036D01*
X483164Y579570D01*
X479943Y578236D01*
X476457Y578236D01*
G37*
%LPD*%
%LPC*%
G36*
X451057Y578236D02*
X451057Y578236D01*
X447836Y579570D01*
X445370Y582036D01*
X444036Y585257D01*
X444036Y588743D01*
X445370Y591964D01*
X447836Y594430D01*
X451057Y595764D01*
X454543Y595764D01*
X457764Y594430D01*
X460230Y591964D01*
X461564Y588743D01*
X461564Y585257D01*
X460230Y582036D01*
X457764Y579570D01*
X454543Y578236D01*
X451057Y578236D01*
G37*
%LPD*%
%LPC*%
G36*
X374857Y324236D02*
X374857Y324236D01*
X371636Y325570D01*
X369170Y328036D01*
X367836Y331257D01*
X367836Y334743D01*
X369170Y337964D01*
X371636Y340430D01*
X374857Y341764D01*
X378343Y341764D01*
X381564Y340430D01*
X384030Y337964D01*
X385364Y334743D01*
X385364Y331257D01*
X384030Y328036D01*
X381564Y325570D01*
X378343Y324236D01*
X374857Y324236D01*
G37*
%LPD*%
%LPC*%
G36*
X425657Y578236D02*
X425657Y578236D01*
X422436Y579570D01*
X419970Y582036D01*
X418636Y585257D01*
X418636Y588743D01*
X419970Y591964D01*
X422436Y594430D01*
X425657Y595764D01*
X429143Y595764D01*
X432364Y594430D01*
X434830Y591964D01*
X436164Y588743D01*
X436164Y585257D01*
X434830Y582036D01*
X432364Y579570D01*
X429143Y578236D01*
X425657Y578236D01*
G37*
%LPD*%
%LPC*%
G36*
X400257Y578236D02*
X400257Y578236D01*
X397036Y579570D01*
X394570Y582036D01*
X393236Y585257D01*
X393236Y588743D01*
X394570Y591964D01*
X397036Y594430D01*
X400257Y595764D01*
X403743Y595764D01*
X406964Y594430D01*
X409430Y591964D01*
X410764Y588743D01*
X410764Y585257D01*
X409430Y582036D01*
X406964Y579570D01*
X403743Y578236D01*
X400257Y578236D01*
G37*
%LPD*%
%LPC*%
G36*
X374857Y578236D02*
X374857Y578236D01*
X371636Y579570D01*
X369170Y582036D01*
X367836Y585257D01*
X367836Y588743D01*
X369170Y591964D01*
X371636Y594430D01*
X374857Y595764D01*
X378343Y595764D01*
X381564Y594430D01*
X384030Y591964D01*
X385364Y588743D01*
X385364Y585257D01*
X384030Y582036D01*
X381564Y579570D01*
X378343Y578236D01*
X374857Y578236D01*
G37*
%LPD*%
%LPC*%
G36*
X349457Y578236D02*
X349457Y578236D01*
X346236Y579570D01*
X343770Y582036D01*
X342436Y585257D01*
X342436Y588743D01*
X343770Y591964D01*
X346236Y594430D01*
X349457Y595764D01*
X352943Y595764D01*
X356164Y594430D01*
X358630Y591964D01*
X359964Y588743D01*
X359964Y585257D01*
X358630Y582036D01*
X356164Y579570D01*
X352943Y578236D01*
X349457Y578236D01*
G37*
%LPD*%
%LPC*%
G36*
X324057Y578236D02*
X324057Y578236D01*
X320836Y579570D01*
X318370Y582036D01*
X317036Y585257D01*
X317036Y588743D01*
X318370Y591964D01*
X320836Y594430D01*
X324057Y595764D01*
X327543Y595764D01*
X330764Y594430D01*
X333230Y591964D01*
X334564Y588743D01*
X334564Y585257D01*
X333230Y582036D01*
X330764Y579570D01*
X327543Y578236D01*
X324057Y578236D01*
G37*
%LPD*%
%LPC*%
G36*
X298657Y578236D02*
X298657Y578236D01*
X295436Y579570D01*
X292970Y582036D01*
X291636Y585257D01*
X291636Y588743D01*
X292970Y591964D01*
X295436Y594430D01*
X298657Y595764D01*
X302143Y595764D01*
X305364Y594430D01*
X307830Y591964D01*
X309164Y588743D01*
X309164Y585257D01*
X307830Y582036D01*
X305364Y579570D01*
X302143Y578236D01*
X298657Y578236D01*
G37*
%LPD*%
%LPC*%
G36*
X273257Y578236D02*
X273257Y578236D01*
X270036Y579570D01*
X267570Y582036D01*
X266236Y585257D01*
X266236Y588743D01*
X267570Y591964D01*
X270036Y594430D01*
X273257Y595764D01*
X276743Y595764D01*
X279964Y594430D01*
X282430Y591964D01*
X283764Y588743D01*
X283764Y585257D01*
X282430Y582036D01*
X279964Y579570D01*
X276743Y578236D01*
X273257Y578236D01*
G37*
%LPD*%
%LPC*%
G36*
X247857Y578236D02*
X247857Y578236D01*
X244636Y579570D01*
X242170Y582036D01*
X240836Y585257D01*
X240836Y588743D01*
X242170Y591964D01*
X244636Y594430D01*
X247857Y595764D01*
X251343Y595764D01*
X254564Y594430D01*
X257030Y591964D01*
X258364Y588743D01*
X258364Y585257D01*
X257030Y582036D01*
X254564Y579570D01*
X251343Y578236D01*
X247857Y578236D01*
G37*
%LPD*%
%LPC*%
G36*
X222457Y578236D02*
X222457Y578236D01*
X219236Y579570D01*
X216770Y582036D01*
X215436Y585257D01*
X215436Y588743D01*
X216770Y591964D01*
X219236Y594430D01*
X222457Y595764D01*
X225943Y595764D01*
X229164Y594430D01*
X231630Y591964D01*
X232964Y588743D01*
X232964Y585257D01*
X231630Y582036D01*
X229164Y579570D01*
X225943Y578236D01*
X222457Y578236D01*
G37*
%LPD*%
%LPC*%
G36*
X197057Y578236D02*
X197057Y578236D01*
X193836Y579570D01*
X191370Y582036D01*
X190036Y585257D01*
X190036Y588743D01*
X191370Y591964D01*
X193836Y594430D01*
X197057Y595764D01*
X200543Y595764D01*
X203764Y594430D01*
X206230Y591964D01*
X207564Y588743D01*
X207564Y585257D01*
X206230Y582036D01*
X203764Y579570D01*
X200543Y578236D01*
X197057Y578236D01*
G37*
%LPD*%
%LPC*%
G36*
X830738Y553211D02*
X830738Y553211D01*
X828684Y554062D01*
X827112Y555634D01*
X826261Y557688D01*
X826261Y559912D01*
X827112Y561966D01*
X828684Y563538D01*
X830738Y564389D01*
X832962Y564389D01*
X835016Y563538D01*
X836588Y561966D01*
X837439Y559912D01*
X837439Y557688D01*
X836588Y555634D01*
X835016Y554062D01*
X832962Y553211D01*
X830738Y553211D01*
G37*
%LPD*%
%LPC*%
G36*
X77628Y647191D02*
X77628Y647191D01*
X75574Y648042D01*
X74002Y649614D01*
X73151Y651668D01*
X73151Y653892D01*
X74002Y655946D01*
X75574Y657518D01*
X77628Y658369D01*
X79852Y658369D01*
X81906Y657518D01*
X83478Y655946D01*
X84329Y653892D01*
X84329Y651668D01*
X83478Y649614D01*
X81906Y648042D01*
X79852Y647191D01*
X77628Y647191D01*
G37*
%LPD*%
%LPC*%
G36*
X353739Y51239D02*
X353739Y51239D01*
X353739Y60084D01*
X353926Y60054D01*
X355669Y59488D01*
X357301Y58656D01*
X358783Y57579D01*
X360079Y56283D01*
X361156Y54801D01*
X361988Y53169D01*
X362554Y51426D01*
X362584Y51239D01*
X353739Y51239D01*
G37*
%LPD*%
%LPC*%
G36*
X339816Y51239D02*
X339816Y51239D01*
X339846Y51426D01*
X340412Y53169D01*
X341244Y54801D01*
X342321Y56283D01*
X343617Y57579D01*
X345099Y58656D01*
X346731Y59488D01*
X348474Y60054D01*
X348661Y60084D01*
X348661Y51239D01*
X339816Y51239D01*
G37*
%LPD*%
%LPC*%
G36*
X353739Y46161D02*
X353739Y46161D01*
X362584Y46161D01*
X362554Y45974D01*
X361988Y44231D01*
X361156Y42599D01*
X360079Y41117D01*
X358783Y39821D01*
X357301Y38744D01*
X355669Y37912D01*
X353926Y37346D01*
X353739Y37316D01*
X353739Y46161D01*
G37*
%LPD*%
%LPC*%
G36*
X348474Y37346D02*
X348474Y37346D01*
X346731Y37912D01*
X345099Y38744D01*
X343617Y39821D01*
X342321Y41117D01*
X341244Y42599D01*
X340412Y44231D01*
X339846Y45974D01*
X339816Y46161D01*
X348661Y46161D01*
X348661Y37316D01*
X348474Y37346D01*
G37*
%LPD*%
%LPC*%
G36*
X462279Y675639D02*
X462279Y675639D01*
X462279Y682424D01*
X463445Y682046D01*
X464799Y681356D01*
X466028Y680463D01*
X467103Y679388D01*
X467996Y678159D01*
X468686Y676805D01*
X469064Y675639D01*
X462279Y675639D01*
G37*
%LPD*%
%LPC*%
G36*
X462279Y670561D02*
X462279Y670561D01*
X469064Y670561D01*
X468686Y669395D01*
X467996Y668041D01*
X467103Y666812D01*
X466028Y665737D01*
X464799Y664844D01*
X463445Y664154D01*
X462279Y663776D01*
X462279Y670561D01*
G37*
%LPD*%
%LPC*%
G36*
X450416Y675639D02*
X450416Y675639D01*
X450794Y676805D01*
X451484Y678159D01*
X452377Y679388D01*
X453452Y680463D01*
X454681Y681356D01*
X456035Y682046D01*
X457201Y682424D01*
X457201Y675639D01*
X450416Y675639D01*
G37*
%LPD*%
%LPC*%
G36*
X456035Y664154D02*
X456035Y664154D01*
X454681Y664844D01*
X453452Y665737D01*
X452377Y666812D01*
X451484Y668041D01*
X450794Y669395D01*
X450416Y670561D01*
X457201Y670561D01*
X457201Y663776D01*
X456035Y664154D01*
G37*
%LPD*%
%LPC*%
G36*
X353422Y335222D02*
X353422Y335222D01*
X353422Y341493D01*
X353756Y341427D01*
X355351Y340766D01*
X356787Y339807D01*
X358007Y338587D01*
X358966Y337151D01*
X359627Y335556D01*
X359693Y335222D01*
X353422Y335222D01*
G37*
%LPD*%
%LPC*%
G36*
X226422Y563822D02*
X226422Y563822D01*
X226422Y570093D01*
X226756Y570027D01*
X228351Y569366D01*
X229787Y568407D01*
X231007Y567187D01*
X231966Y565751D01*
X232627Y564156D01*
X232693Y563822D01*
X226422Y563822D01*
G37*
%LPD*%
%LPC*%
G36*
X353422Y330778D02*
X353422Y330778D01*
X359693Y330778D01*
X359627Y330444D01*
X358966Y328849D01*
X358007Y327413D01*
X356787Y326193D01*
X355351Y325234D01*
X353756Y324573D01*
X353422Y324507D01*
X353422Y330778D01*
G37*
%LPD*%
%LPC*%
G36*
X342707Y335222D02*
X342707Y335222D01*
X342773Y335556D01*
X343434Y337151D01*
X344393Y338587D01*
X345613Y339807D01*
X347049Y340766D01*
X348644Y341427D01*
X348978Y341493D01*
X348978Y335222D01*
X342707Y335222D01*
G37*
%LPD*%
%LPC*%
G36*
X226422Y559378D02*
X226422Y559378D01*
X232693Y559378D01*
X232627Y559044D01*
X231966Y557449D01*
X231007Y556013D01*
X229787Y554793D01*
X228351Y553834D01*
X226756Y553173D01*
X226422Y553107D01*
X226422Y559378D01*
G37*
%LPD*%
%LPC*%
G36*
X215707Y563822D02*
X215707Y563822D01*
X215773Y564156D01*
X216434Y565751D01*
X217393Y567187D01*
X218613Y568407D01*
X220049Y569366D01*
X221644Y570027D01*
X221978Y570093D01*
X221978Y563822D01*
X215707Y563822D01*
G37*
%LPD*%
%LPC*%
G36*
X348644Y324573D02*
X348644Y324573D01*
X347049Y325234D01*
X345613Y326193D01*
X344393Y327413D01*
X343434Y328849D01*
X342773Y330444D01*
X342707Y330778D01*
X348978Y330778D01*
X348978Y324507D01*
X348644Y324573D01*
G37*
%LPD*%
%LPC*%
G36*
X221644Y553173D02*
X221644Y553173D01*
X220049Y553834D01*
X218613Y554793D01*
X217393Y556013D01*
X216434Y557449D01*
X215773Y559044D01*
X215707Y559378D01*
X221978Y559378D01*
X221978Y553107D01*
X221644Y553173D01*
G37*
%LPD*%
%LPC*%
G36*
X459739Y673099D02*
X459739Y673099D01*
X459739Y673101D01*
X459741Y673101D01*
X459741Y673099D01*
X459739Y673099D01*
G37*
%LPD*%
%LPC*%
G36*
X351199Y48699D02*
X351199Y48699D01*
X351199Y48701D01*
X351201Y48701D01*
X351201Y48699D01*
X351199Y48699D01*
G37*
%LPD*%
D10*
X148200Y48700D03*
X97800Y48700D03*
X148200Y123700D03*
X97800Y123700D03*
X351200Y48700D03*
X351200Y123700D03*
D11*
X977900Y38100D03*
X38100Y38100D03*
X977900Y723900D03*
X38100Y723900D03*
D12*
X202200Y139300D03*
X202200Y89300D03*
X77200Y89300D03*
X77200Y139300D03*
X392700Y139300D03*
X392700Y89300D03*
X267700Y89300D03*
X267700Y139300D03*
X570500Y139300D03*
X570500Y89300D03*
X445500Y89300D03*
X445500Y139300D03*
X748300Y139300D03*
X748300Y89300D03*
X623300Y89300D03*
X623300Y139300D03*
X926100Y139300D03*
X926100Y89300D03*
X801100Y89300D03*
X801100Y139300D03*
D13*
X535940Y673100D03*
X510540Y673100D03*
X485140Y673100D03*
X459740Y673100D03*
D14*
X71800Y587000D03*
X71800Y561600D03*
X97200Y587000D03*
X97200Y561600D03*
X122600Y587000D03*
X122600Y561600D03*
X148000Y587000D03*
X148000Y561600D03*
X173400Y587000D03*
X173400Y561600D03*
X198800Y587000D03*
X198800Y561600D03*
X224200Y587000D03*
X224200Y561600D03*
X249600Y587000D03*
X249600Y561600D03*
X275000Y587000D03*
X275000Y561600D03*
X300400Y587000D03*
X300400Y561600D03*
X325800Y587000D03*
X325800Y561600D03*
X351200Y587000D03*
X351200Y561600D03*
X376600Y587000D03*
X376600Y561600D03*
X402000Y587000D03*
X402000Y561600D03*
X427400Y587000D03*
X427400Y561600D03*
X452800Y587000D03*
X452800Y561600D03*
X478200Y587000D03*
X478200Y561600D03*
X503600Y587000D03*
X503600Y561600D03*
X71800Y333000D03*
X71800Y307600D03*
X97200Y333000D03*
X97200Y307600D03*
X122600Y333000D03*
X122600Y307600D03*
X148000Y333000D03*
X148000Y307600D03*
X173400Y333000D03*
X173400Y307600D03*
X198800Y333000D03*
X198800Y307600D03*
X224200Y333000D03*
X224200Y307600D03*
X249600Y333000D03*
X249600Y307600D03*
X275000Y333000D03*
X275000Y307600D03*
X300400Y333000D03*
X300400Y307600D03*
X325800Y333000D03*
X325800Y307600D03*
X351200Y333000D03*
X351200Y307600D03*
X376600Y333000D03*
X376600Y307600D03*
X402000Y333000D03*
X402000Y307600D03*
X427400Y333000D03*
X427400Y307600D03*
X452800Y333000D03*
X452800Y307600D03*
X478200Y333000D03*
X478200Y307600D03*
X503600Y333000D03*
X503600Y307600D03*
D15*
X527050Y736600D03*
X565150Y736600D03*
X57150Y209550D03*
X237704Y137374D03*
X430744Y132294D03*
X608544Y132294D03*
X771104Y124674D03*
X831850Y558800D03*
X78740Y652780D03*
M02*
